<svg xmlns="http://www.w3.org/2000/svg" viewBox="0 0 512 512">
<defs>
<linearGradient id="bg" x1="0" y1="0" x2="0" y2="1">
<stop offset="0" stop-color="#1b2150"/><stop offset=".55" stop-color="#0d1130"/><stop offset="1" stop-color="#070818"/>
</linearGradient>
<radialGradient id="glow" cx=".5" cy=".5" r=".5">
<stop offset="0" stop-color="#96beff" stop-opacity=".85"/><stop offset=".35" stop-color="#5a78f0" stop-opacity=".35"/>
<stop offset=".75" stop-color="#8c5aeb" stop-opacity=".14"/><stop offset="1" stop-color="#8c5aeb" stop-opacity="0"/>
</radialGradient>
<radialGradient id="core" cx=".5" cy=".5" r=".5">
<stop offset="0" stop-color="#ffffff" stop-opacity=".95"/><stop offset=".4" stop-color="#bed7ff" stop-opacity=".5"/>
<stop offset="1" stop-color="#96aaff" stop-opacity="0"/>
</radialGradient>
<filter id="soft" x="-40%" y="-40%" width="180%" height="180%"><feGaussianBlur stdDeviation="2.2"/></filter>
</defs>
<rect width="512" height="512" fill="url(#bg)"/>
<circle cx="129.2" cy="45.1" r="1.65" fill="#cdd8ff" opacity="0.22"/><circle cx="192.3" cy="13.1" r="1.46" fill="#cdd8ff" opacity="0.19"/><circle cx="447.4" cy="509.3" r="2.08" fill="#cdd8ff" opacity="0.30"/><circle cx="328.7" cy="441.1" r="1.68" fill="#cdd8ff" opacity="0.18"/><circle cx="71.8" cy="486.4" r="2.19" fill="#cdd8ff" opacity="0.42"/><circle cx="281.9" cy="92.4" r="1.61" fill="#cdd8ff" opacity="0.23"/><circle cx="482.9" cy="420.6" r="1.01" fill="#cdd8ff" opacity="0.40"/><circle cx="239.1" cy="31.1" r="0.80" fill="#cdd8ff" opacity="0.31"/><circle cx="424.9" cy="432.8" r="1.81" fill="#cdd8ff" opacity="0.26"/><circle cx="299.9" cy="356.6" r="1.86" fill="#cdd8ff" opacity="0.37"/><circle cx="507.0" cy="230.3" r="0.92" fill="#cdd8ff" opacity="0.21"/><circle cx="229.1" cy="65.0" r="1.95" fill="#cdd8ff" opacity="0.33"/><circle cx="412.0" cy="199.4" r="1.10" fill="#cdd8ff" opacity="0.23"/><circle cx="9.8" cy="142.3" r="1.28" fill="#cdd8ff" opacity="0.41"/><circle cx="489.4" cy="98.7" r="2.11" fill="#cdd8ff" opacity="0.32"/><circle cx="172.4" cy="160.9" r="0.97" fill="#cdd8ff" opacity="0.44"/><circle cx="52.7" cy="471.8" r="2.01" fill="#cdd8ff" opacity="0.28"/><circle cx="363.6" cy="157.0" r="0.95" fill="#cdd8ff" opacity="0.30"/><circle cx="60.1" cy="124.7" r="1.70" fill="#cdd8ff" opacity="0.36"/><circle cx="251.2" cy="107.4" r="1.12" fill="#cdd8ff" opacity="0.36"/><circle cx="451.5" cy="418.3" r="1.84" fill="#cdd8ff" opacity="0.40"/><circle cx="205.6" cy="78.4" r="0.96" fill="#cdd8ff" opacity="0.31"/><circle cx="333.7" cy="505.8" r="1.42" fill="#cdd8ff" opacity="0.37"/><circle cx="220.3" cy="23.3" r="0.89" fill="#cdd8ff" opacity="0.40"/><circle cx="501.1" cy="409.4" r="1.03" fill="#cdd8ff" opacity="0.27"/><circle cx="145.0" cy="250.8" r="2.06" fill="#cdd8ff" opacity="0.42"/>
<circle cx="256" cy="256" r="157" fill="url(#glow)"/>
<g filter="url(#soft)"><circle cx="209.6" cy="307.4" r="3.12" fill="#5aaaff" opacity="0.48"/><circle cx="159.0" cy="257.7" r="6.34" fill="#5aaaff" opacity="0.40"/><circle cx="182.7" cy="297.6" r="5.11" fill="#78e1ff" opacity="0.54"/><circle cx="377.2" cy="238.3" r="5.03" fill="#cd82ff" opacity="0.39"/><circle cx="387.8" cy="149.5" r="5.09" fill="#cd82ff" opacity="0.15"/><circle cx="162.2" cy="272.7" r="3.26" fill="#78e1ff" opacity="0.34"/><circle cx="295.9" cy="159.4" r="5.56" fill="#cd82ff" opacity="0.21"/><circle cx="380.7" cy="160.7" r="6.19" fill="#cd82ff" opacity="0.30"/><circle cx="367.1" cy="173.3" r="4.14" fill="#cd82ff" opacity="0.33"/><circle cx="284.7" cy="237.0" r="6.87" fill="#ebf2ff" opacity="0.39"/><circle cx="206.3" cy="201.4" r="3.30" fill="#5aaaff" opacity="0.31"/><circle cx="136.8" cy="271.7" r="4.65" fill="#cd82ff" opacity="0.35"/><circle cx="345.7" cy="228.1" r="7.50" fill="#5aaaff" opacity="0.43"/><circle cx="277.7" cy="301.4" r="4.44" fill="#5aaaff" opacity="0.47"/><circle cx="386.5" cy="193.4" r="4.10" fill="#cd82ff" opacity="0.32"/><circle cx="336.2" cy="175.5" r="8.85" fill="#cd82ff" opacity="0.38"/><circle cx="180.5" cy="371.2" r="3.11" fill="#cd82ff" opacity="0.21"/><circle cx="273.1" cy="221.7" r="10.34" fill="#ebf2ff" opacity="0.55"/><circle cx="197.8" cy="268.8" r="3.30" fill="#78e1ff" opacity="0.57"/><circle cx="415.2" cy="170.5" r="6.67" fill="#cd82ff" opacity="0.25"/><circle cx="253.1" cy="362.7" r="5.14" fill="#5aaaff" opacity="0.28"/><circle cx="379.4" cy="166.2" r="3.81" fill="#cd82ff" opacity="0.27"/><circle cx="277.2" cy="300.6" r="8.14" fill="#5aaaff" opacity="0.35"/><circle cx="308.8" cy="286.6" r="4.70" fill="#78e1ff" opacity="0.33"/><circle cx="289.1" cy="214.0" r="5.34" fill="#ebf2ff" opacity="0.55"/><circle cx="232.7" cy="325.9" r="3.46" fill="#78e1ff" opacity="0.33"/><circle cx="185.0" cy="318.6" r="3.27" fill="#78e1ff" opacity="0.46"/><circle cx="364.2" cy="213.8" r="3.61" fill="#78e1ff" opacity="0.30"/><circle cx="330.6" cy="210.2" r="4.43" fill="#5aaaff" opacity="0.35"/><circle cx="191.8" cy="358.9" r="5.21" fill="#5aaaff" opacity="0.26"/><circle cx="179.1" cy="353.0" r="7.32" fill="#cd82ff" opacity="0.23"/><circle cx="357.2" cy="212.6" r="10.43" fill="#5aaaff" opacity="0.40"/><circle cx="349.5" cy="293.0" r="5.94" fill="#cd82ff" opacity="0.22"/><circle cx="247.4" cy="233.3" r="6.82" fill="#78e1ff" opacity="0.58"/><circle cx="285.9" cy="280.0" r="3.69" fill="#78e1ff" opacity="0.35"/><circle cx="255.3" cy="229.1" r="7.25" fill="#ebf2ff" opacity="0.50"/><circle cx="379.0" cy="212.0" r="3.68" fill="#cd82ff" opacity="0.26"/><circle cx="181.2" cy="339.5" r="9.05" fill="#cd82ff" opacity="0.35"/><circle cx="110.8" cy="333.5" r="3.85" fill="#5aaaff" opacity="0.24"/><circle cx="344.4" cy="245.4" r="8.05" fill="#5aaaff" opacity="0.51"/><circle cx="278.4" cy="165.1" r="4.13" fill="#5aaaff" opacity="0.38"/><circle cx="343.1" cy="143.5" r="3.21" fill="#cd82ff" opacity="0.17"/><circle cx="176.8" cy="361.6" r="5.98" fill="#cd82ff" opacity="0.20"/><circle cx="218.2" cy="262.1" r="4.51" fill="#78e1ff" opacity="0.67"/><circle cx="308.0" cy="190.9" r="3.93" fill="#78e1ff" opacity="0.35"/><circle cx="409.1" cy="179.7" r="3.22" fill="#cd82ff" opacity="0.17"/><circle cx="195.3" cy="174.5" r="4.99" fill="#5aaaff" opacity="0.18"/><circle cx="158.9" cy="244.6" r="5.50" fill="#78e1ff" opacity="0.32"/><circle cx="275.0" cy="329.9" r="3.88" fill="#cd82ff" opacity="0.34"/><circle cx="122.4" cy="267.7" r="4.82" fill="#cd82ff" opacity="0.27"/><circle cx="311.3" cy="269.0" r="3.28" fill="#5aaaff" opacity="0.55"/><circle cx="303.4" cy="242.2" r="5.21" fill="#78e1ff" opacity="0.53"/><circle cx="203.0" cy="254.1" r="4.02" fill="#78e1ff" opacity="0.50"/><circle cx="386.2" cy="237.1" r="3.37" fill="#cd82ff" opacity="0.37"/><circle cx="291.3" cy="144.0" r="6.62" fill="#cd82ff" opacity="0.26"/><circle cx="107.9" cy="303.9" r="3.90" fill="#cd82ff" opacity="0.21"/><circle cx="169.5" cy="190.6" r="4.18" fill="#cd82ff" opacity="0.29"/><circle cx="170.3" cy="240.9" r="4.74" fill="#5aaaff" opacity="0.30"/><circle cx="225.3" cy="225.3" r="8.88" fill="#5aaaff" opacity="0.46"/><circle cx="217.9" cy="200.1" r="4.14" fill="#78e1ff" opacity="0.38"/><circle cx="329.2" cy="333.9" r="3.58" fill="#cd82ff" opacity="0.24"/><circle cx="112.5" cy="352.5" r="4.20" fill="#cd82ff" opacity="0.17"/><circle cx="139.5" cy="230.8" r="3.87" fill="#cd82ff" opacity="0.24"/><circle cx="396.2" cy="256.0" r="6.10" fill="#cd82ff" opacity="0.28"/><circle cx="362.1" cy="306.0" r="3.35" fill="#cd82ff" opacity="0.19"/><circle cx="281.8" cy="353.1" r="3.42" fill="#cd82ff" opacity="0.28"/><circle cx="356.5" cy="188.8" r="4.03" fill="#cd82ff" opacity="0.42"/><circle cx="100.9" cy="311.1" r="5.25" fill="#cd82ff" opacity="0.23"/><circle cx="319.7" cy="184.8" r="4.38" fill="#5aaaff" opacity="0.32"/><circle cx="182.2" cy="204.3" r="3.35" fill="#5aaaff" opacity="0.23"/><circle cx="198.2" cy="208.1" r="5.10" fill="#cd82ff" opacity="0.33"/><circle cx="301.6" cy="179.7" r="4.33" fill="#78e1ff" opacity="0.38"/><circle cx="366.7" cy="222.4" r="3.20" fill="#5aaaff" opacity="0.29"/><circle cx="138.7" cy="344.6" r="3.19" fill="#cd82ff" opacity="0.25"/><circle cx="251.3" cy="325.2" r="4.95" fill="#5aaaff" opacity="0.48"/><circle cx="375.3" cy="186.7" r="7.87" fill="#5aaaff" opacity="0.32"/><circle cx="185.3" cy="230.2" r="4.78" fill="#5aaaff" opacity="0.31"/><circle cx="302.1" cy="181.3" r="5.08" fill="#5aaaff" opacity="0.40"/><circle cx="127.4" cy="314.0" r="7.65" fill="#cd82ff" opacity="0.37"/><circle cx="130.9" cy="336.5" r="4.56" fill="#cd82ff" opacity="0.34"/><circle cx="171.5" cy="213.4" r="3.29" fill="#cd82ff" opacity="0.34"/><circle cx="199.9" cy="226.2" r="3.33" fill="#78e1ff" opacity="0.33"/><circle cx="223.7" cy="294.8" r="9.01" fill="#78e1ff" opacity="0.41"/><circle cx="309.5" cy="338.5" r="3.98" fill="#cd82ff" opacity="0.31"/><circle cx="182.8" cy="204.1" r="5.34" fill="#cd82ff" opacity="0.26"/><circle cx="326.2" cy="212.6" r="3.10" fill="#78e1ff" opacity="0.38"/><circle cx="324.3" cy="313.5" r="6.01" fill="#cd82ff" opacity="0.34"/><circle cx="311.2" cy="175.2" r="3.95" fill="#78e1ff" opacity="0.28"/><circle cx="307.0" cy="218.5" r="9.75" fill="#ebf2ff" opacity="0.53"/><circle cx="314.2" cy="147.3" r="4.30" fill="#cd82ff" opacity="0.24"/><circle cx="257.2" cy="299.4" r="4.51" fill="#78e1ff" opacity="0.35"/><circle cx="372.9" cy="312.5" r="4.63" fill="#cd82ff" opacity="0.17"/><circle cx="168.8" cy="294.7" r="3.72" fill="#78e1ff" opacity="0.42"/><circle cx="121.6" cy="319.5" r="6.40" fill="#cd82ff" opacity="0.31"/><circle cx="283.1" cy="204.4" r="6.57" fill="#78e1ff" opacity="0.41"/><circle cx="311.8" cy="236.7" r="4.44" fill="#ebf2ff" opacity="0.36"/><circle cx="262.5" cy="268.1" r="3.10" fill="#78e1ff" opacity="0.49"/><circle cx="239.9" cy="152.0" r="3.13" fill="#cd82ff" opacity="0.28"/><circle cx="318.5" cy="222.4" r="3.96" fill="#5aaaff" opacity="0.54"/><circle cx="316.0" cy="283.4" r="3.89" fill="#5aaaff" opacity="0.30"/><circle cx="115.2" cy="325.4" r="3.42" fill="#cd82ff" opacity="0.21"/><circle cx="222.6" cy="164.6" r="3.52" fill="#cd82ff" opacity="0.24"/><circle cx="203.9" cy="369.3" r="7.73" fill="#5aaaff" opacity="0.25"/><circle cx="134.2" cy="270.2" r="3.92" fill="#cd82ff" opacity="0.30"/><circle cx="213.8" cy="314.6" r="4.01" fill="#78e1ff" opacity="0.33"/><circle cx="360.5" cy="146.0" r="4.57" fill="#cd82ff" opacity="0.23"/><circle cx="254.6" cy="172.7" r="3.14" fill="#5aaaff" opacity="0.24"/><circle cx="187.9" cy="328.8" r="9.92" fill="#5aaaff" opacity="0.44"/><circle cx="217.7" cy="257.1" r="5.04" fill="#ebf2ff" opacity="0.51"/><circle cx="417.8" cy="191.0" r="3.10" fill="#cd82ff" opacity="0.27"/><circle cx="228.1" cy="182.2" r="4.51" fill="#cd82ff" opacity="0.35"/><circle cx="298.5" cy="311.8" r="3.34" fill="#78e1ff" opacity="0.44"/><circle cx="120.7" cy="233.8" r="3.36" fill="#cd82ff" opacity="0.23"/><circle cx="169.0" cy="321.5" r="5.20" fill="#5aaaff" opacity="0.44"/><circle cx="130.5" cy="278.8" r="3.68" fill="#cd82ff" opacity="0.25"/><circle cx="194.9" cy="195.3" r="4.32" fill="#cd82ff" opacity="0.22"/><circle cx="216.2" cy="302.9" r="3.24" fill="#78e1ff" opacity="0.43"/><circle cx="333.2" cy="208.6" r="3.24" fill="#78e1ff" opacity="0.43"/><circle cx="361.2" cy="216.7" r="3.48" fill="#5aaaff" opacity="0.30"/><circle cx="268.4" cy="201.0" r="3.10" fill="#5aaaff" opacity="0.39"/><circle cx="264.3" cy="188.4" r="7.81" fill="#5aaaff" opacity="0.46"/><circle cx="134.7" cy="250.6" r="3.83" fill="#cd82ff" opacity="0.37"/><circle cx="129.1" cy="216.3" r="3.42" fill="#cd82ff" opacity="0.20"/><circle cx="347.2" cy="219.3" r="8.30" fill="#5aaaff" opacity="0.46"/><circle cx="182.9" cy="236.1" r="4.98" fill="#5aaaff" opacity="0.37"/><circle cx="328.7" cy="180.9" r="3.49" fill="#cd82ff" opacity="0.36"/><circle cx="270.2" cy="296.2" r="5.88" fill="#78e1ff" opacity="0.47"/><circle cx="409.4" cy="200.9" r="6.86" fill="#cd82ff" opacity="0.28"/><circle cx="90.4" cy="265.6" r="3.31" fill="#cd82ff" opacity="0.15"/><circle cx="234.7" cy="191.8" r="4.53" fill="#78e1ff" opacity="0.37"/><circle cx="167.1" cy="288.5" r="6.70" fill="#5aaaff" opacity="0.52"/><circle cx="213.4" cy="331.2" r="4.21" fill="#5aaaff" opacity="0.25"/><circle cx="284.5" cy="164.5" r="5.46" fill="#cd82ff" opacity="0.29"/><circle cx="395.9" cy="191.5" r="3.34" fill="#cd82ff" opacity="0.21"/><circle cx="301.1" cy="220.1" r="3.71" fill="#78e1ff" opacity="0.50"/><circle cx="371.5" cy="285.1" r="6.50" fill="#cd82ff" opacity="0.31"/><circle cx="321.5" cy="184.4" r="3.42" fill="#78e1ff" opacity="0.39"/><circle cx="343.7" cy="313.6" r="4.03" fill="#cd82ff" opacity="0.25"/><circle cx="198.3" cy="201.9" r="5.61" fill="#cd82ff" opacity="0.37"/><circle cx="86.3" cy="325.1" r="4.98" fill="#cd82ff" opacity="0.23"/><circle cx="293.2" cy="298.6" r="3.75" fill="#5aaaff" opacity="0.43"/><circle cx="105.4" cy="271.6" r="4.13" fill="#cd82ff" opacity="0.30"/><circle cx="114.3" cy="247.1" r="3.73" fill="#cd82ff" opacity="0.19"/><circle cx="376.9" cy="250.8" r="3.37" fill="#5aaaff" opacity="0.36"/><circle cx="157.5" cy="202.5" r="5.73" fill="#cd82ff" opacity="0.21"/><circle cx="364.2" cy="247.9" r="3.42" fill="#cd82ff" opacity="0.42"/><circle cx="270.9" cy="154.2" r="3.39" fill="#cd82ff" opacity="0.30"/><circle cx="409.4" cy="215.7" r="3.97" fill="#cd82ff" opacity="0.22"/><circle cx="168.5" cy="243.3" r="4.36" fill="#5aaaff" opacity="0.48"/><circle cx="301.7" cy="260.4" r="7.89" fill="#78e1ff" opacity="0.53"/><circle cx="349.6" cy="210.8" r="3.24" fill="#5aaaff" opacity="0.27"/><circle cx="171.2" cy="362.5" r="5.39" fill="#cd82ff" opacity="0.20"/><circle cx="190.6" cy="228.6" r="5.46" fill="#5aaaff" opacity="0.39"/><circle cx="158.5" cy="227.3" r="3.08" fill="#5aaaff" opacity="0.37"/><circle cx="154.7" cy="228.7" r="3.77" fill="#5aaaff" opacity="0.26"/><circle cx="324.3" cy="149.6" r="3.53" fill="#cd82ff" opacity="0.19"/><circle cx="336.9" cy="208.4" r="4.75" fill="#5aaaff" opacity="0.51"/><circle cx="223.0" cy="267.4" r="4.10" fill="#ebf2ff" opacity="0.68"/><circle cx="164.5" cy="334.9" r="5.92" fill="#cd82ff" opacity="0.40"/><circle cx="258.0" cy="313.8" r="6.93" fill="#78e1ff" opacity="0.31"/><circle cx="195.7" cy="192.5" r="3.81" fill="#5aaaff" opacity="0.25"/><circle cx="303.9" cy="302.4" r="3.74" fill="#cd82ff" opacity="0.30"/><circle cx="271.2" cy="193.8" r="5.67" fill="#5aaaff" opacity="0.53"/><circle cx="290.4" cy="182.1" r="5.77" fill="#5aaaff" opacity="0.41"/><circle cx="116.5" cy="305.3" r="3.76" fill="#cd82ff" opacity="0.24"/><circle cx="410.8" cy="226.4" r="3.69" fill="#cd82ff" opacity="0.26"/><circle cx="357.0" cy="165.7" r="4.95" fill="#cd82ff" opacity="0.21"/><circle cx="388.8" cy="171.7" r="6.77" fill="#5aaaff" opacity="0.31"/><circle cx="125.2" cy="291.3" r="4.21" fill="#cd82ff" opacity="0.30"/><circle cx="359.5" cy="269.4" r="7.75" fill="#cd82ff" opacity="0.28"/><circle cx="318.7" cy="226.9" r="5.33" fill="#5aaaff" opacity="0.46"/><circle cx="179.1" cy="268.8" r="6.27" fill="#5aaaff" opacity="0.55"/><circle cx="135.3" cy="372.8" r="3.32" fill="#cd82ff" opacity="0.24"/><circle cx="195.7" cy="193.4" r="3.39" fill="#5aaaff" opacity="0.23"/><circle cx="177.6" cy="237.1" r="3.49" fill="#5aaaff" opacity="0.44"/><circle cx="364.2" cy="184.7" r="4.80" fill="#cd82ff" opacity="0.25"/><circle cx="335.1" cy="207.9" r="9.11" fill="#78e1ff" opacity="0.47"/><circle cx="125.5" cy="338.8" r="5.43" fill="#cd82ff" opacity="0.31"/><circle cx="385.5" cy="262.6" r="5.00" fill="#cd82ff" opacity="0.24"/><circle cx="314.2" cy="305.8" r="5.52" fill="#cd82ff" opacity="0.29"/><circle cx="318.8" cy="278.8" r="4.10" fill="#5aaaff" opacity="0.39"/><circle cx="383.2" cy="254.5" r="6.16" fill="#cd82ff" opacity="0.23"/><circle cx="360.6" cy="202.5" r="3.10" fill="#5aaaff" opacity="0.44"/><circle cx="224.4" cy="240.0" r="5.59" fill="#78e1ff" opacity="0.52"/><circle cx="186.6" cy="330.4" r="4.04" fill="#5aaaff" opacity="0.33"/><circle cx="132.5" cy="300.2" r="7.74" fill="#cd82ff" opacity="0.31"/><circle cx="215.1" cy="203.7" r="5.42" fill="#5aaaff" opacity="0.44"/><circle cx="283.0" cy="207.4" r="4.31" fill="#5aaaff" opacity="0.35"/><circle cx="195.4" cy="229.0" r="8.22" fill="#5aaaff" opacity="0.43"/><circle cx="221.5" cy="314.8" r="6.60" fill="#5aaaff" opacity="0.38"/><circle cx="146.2" cy="273.5" r="9.07" fill="#5aaaff" opacity="0.37"/><circle cx="419.4" cy="211.1" r="3.62" fill="#cd82ff" opacity="0.21"/><circle cx="161.8" cy="190.2" r="6.09" fill="#cd82ff" opacity="0.22"/><circle cx="306.3" cy="276.7" r="3.31" fill="#78e1ff" opacity="0.39"/><circle cx="371.3" cy="162.7" r="5.42" fill="#cd82ff" opacity="0.24"/><circle cx="113.1" cy="280.5" r="4.94" fill="#cd82ff" opacity="0.23"/><circle cx="260.1" cy="273.6" r="5.93" fill="#78e1ff" opacity="0.64"/><circle cx="175.6" cy="280.1" r="11.32" fill="#5aaaff" opacity="0.47"/><circle cx="345.5" cy="310.9" r="4.26" fill="#cd82ff" opacity="0.25"/><circle cx="385.3" cy="198.2" r="5.09" fill="#5aaaff" opacity="0.30"/><circle cx="290.7" cy="268.9" r="3.07" fill="#78e1ff" opacity="0.41"/><circle cx="104.2" cy="285.8" r="3.99" fill="#cd82ff" opacity="0.19"/><circle cx="250.4" cy="223.0" r="4.06" fill="#ebf2ff" opacity="0.56"/><circle cx="255.7" cy="197.9" r="3.09" fill="#5aaaff" opacity="0.50"/><circle cx="248.9" cy="208.9" r="5.28" fill="#5aaaff" opacity="0.46"/><circle cx="308.1" cy="240.5" r="3.26" fill="#78e1ff" opacity="0.56"/><circle cx="181.9" cy="291.7" r="7.16" fill="#5aaaff" opacity="0.32"/><circle cx="289.9" cy="171.5" r="3.13" fill="#cd82ff" opacity="0.31"/><circle cx="136.9" cy="307.0" r="7.71" fill="#cd82ff" opacity="0.35"/><circle cx="120.8" cy="278.6" r="3.33" fill="#cd82ff" opacity="0.33"/><circle cx="241.4" cy="222.6" r="8.44" fill="#5aaaff" opacity="0.37"/><circle cx="302.3" cy="324.8" r="6.10" fill="#cd82ff" opacity="0.31"/><circle cx="124.8" cy="346.4" r="3.21" fill="#cd82ff" opacity="0.30"/><circle cx="348.1" cy="309.8" r="4.26" fill="#cd82ff" opacity="0.22"/><circle cx="394.2" cy="249.3" r="6.64" fill="#cd82ff" opacity="0.29"/><circle cx="293.6" cy="240.8" r="5.43" fill="#78e1ff" opacity="0.42"/><circle cx="253.4" cy="228.5" r="10.29" fill="#78e1ff" opacity="0.59"/><circle cx="202.6" cy="280.7" r="6.04" fill="#ebf2ff" opacity="0.49"/><circle cx="395.3" cy="259.9" r="3.80" fill="#5aaaff" opacity="0.30"/><circle cx="372.5" cy="257.2" r="3.94" fill="#cd82ff" opacity="0.25"/><circle cx="346.3" cy="153.3" r="5.18" fill="#cd82ff" opacity="0.32"/><circle cx="236.3" cy="300.0" r="7.18" fill="#78e1ff" opacity="0.56"/><circle cx="372.6" cy="169.7" r="3.65" fill="#cd82ff" opacity="0.23"/><circle cx="184.7" cy="243.0" r="7.31" fill="#5aaaff" opacity="0.31"/><circle cx="173.8" cy="245.5" r="3.53" fill="#78e1ff" opacity="0.48"/><circle cx="146.0" cy="344.0" r="4.73" fill="#cd82ff" opacity="0.21"/><circle cx="382.1" cy="190.4" r="3.23" fill="#cd82ff" opacity="0.35"/><circle cx="244.6" cy="200.0" r="7.79" fill="#78e1ff" opacity="0.43"/><circle cx="172.0" cy="204.3" r="5.65" fill="#cd82ff" opacity="0.28"/><circle cx="134.7" cy="233.4" r="3.42" fill="#cd82ff" opacity="0.18"/><circle cx="263.9" cy="360.2" r="3.38" fill="#cd82ff" opacity="0.24"/><circle cx="212.1" cy="239.1" r="4.89" fill="#ebf2ff" opacity="0.43"/><circle cx="242.2" cy="339.8" r="6.35" fill="#cd82ff" opacity="0.32"/><circle cx="323.2" cy="190.7" r="8.56" fill="#78e1ff" opacity="0.32"/><circle cx="387.7" cy="167.1" r="8.24" fill="#cd82ff" opacity="0.23"/><circle cx="262.5" cy="332.7" r="4.53" fill="#cd82ff" opacity="0.30"/><circle cx="219.7" cy="304.4" r="3.23" fill="#5aaaff" opacity="0.35"/><circle cx="303.7" cy="266.0" r="4.48" fill="#5aaaff" opacity="0.44"/><circle cx="224.4" cy="303.4" r="4.96" fill="#5aaaff" opacity="0.32"/><circle cx="318.0" cy="155.0" r="3.55" fill="#cd82ff" opacity="0.28"/><circle cx="86.8" cy="312.7" r="5.77" fill="#cd82ff" opacity="0.25"/><circle cx="357.3" cy="213.8" r="3.14" fill="#78e1ff" opacity="0.47"/><circle cx="338.8" cy="146.4" r="6.29" fill="#cd82ff" opacity="0.19"/><circle cx="224.1" cy="273.1" r="5.85" fill="#ebf2ff" opacity="0.52"/><circle cx="254.1" cy="184.4" r="4.52" fill="#5aaaff" opacity="0.27"/><circle cx="373.3" cy="288.4" r="6.46" fill="#cd82ff" opacity="0.17"/><circle cx="168.3" cy="315.1" r="3.80" fill="#5aaaff" opacity="0.47"/><circle cx="356.1" cy="151.8" r="4.02" fill="#cd82ff" opacity="0.27"/><circle cx="353.5" cy="203.5" r="3.23" fill="#78e1ff" opacity="0.46"/><circle cx="299.7" cy="289.8" r="3.74" fill="#78e1ff" opacity="0.40"/><circle cx="229.1" cy="162.5" r="3.37" fill="#5aaaff" opacity="0.21"/><circle cx="194.2" cy="335.7" r="8.04" fill="#cd82ff" opacity="0.38"/><circle cx="289.0" cy="297.5" r="3.96" fill="#78e1ff" opacity="0.45"/><circle cx="224.8" cy="264.5" r="7.78" fill="#78e1ff" opacity="0.42"/><circle cx="345.4" cy="281.7" r="8.57" fill="#cd82ff" opacity="0.36"/><circle cx="304.4" cy="274.5" r="3.82" fill="#5aaaff" opacity="0.52"/><circle cx="181.0" cy="237.2" r="8.51" fill="#5aaaff" opacity="0.32"/><circle cx="223.4" cy="163.6" r="7.11" fill="#cd82ff" opacity="0.20"/><circle cx="256.3" cy="215.3" r="8.49" fill="#78e1ff" opacity="0.46"/><circle cx="341.0" cy="211.6" r="3.26" fill="#5aaaff" opacity="0.34"/><circle cx="385.1" cy="151.8" r="3.65" fill="#cd82ff" opacity="0.20"/><circle cx="266.7" cy="238.9" r="4.51" fill="#ebf2ff" opacity="0.58"/><circle cx="223.1" cy="239.6" r="3.95" fill="#5aaaff" opacity="0.39"/><circle cx="309.3" cy="327.2" r="3.38" fill="#cd82ff" opacity="0.33"/><circle cx="355.9" cy="163.1" r="5.27" fill="#cd82ff" opacity="0.35"/><circle cx="371.6" cy="167.1" r="5.03" fill="#cd82ff" opacity="0.25"/><circle cx="366.5" cy="236.7" r="5.45" fill="#78e1ff" opacity="0.28"/><circle cx="280.4" cy="263.0" r="4.70" fill="#78e1ff" opacity="0.56"/><circle cx="216.3" cy="225.5" r="7.31" fill="#5aaaff" opacity="0.51"/><circle cx="421.6" cy="185.2" r="7.04" fill="#cd82ff" opacity="0.20"/><circle cx="376.5" cy="259.5" r="7.10" fill="#cd82ff" opacity="0.24"/><circle cx="384.0" cy="182.2" r="3.18" fill="#cd82ff" opacity="0.25"/><circle cx="318.5" cy="142.3" r="5.19" fill="#5aaaff" opacity="0.19"/><circle cx="213.3" cy="226.1" r="6.97" fill="#5aaaff" opacity="0.35"/><circle cx="163.2" cy="363.7" r="5.33" fill="#cd82ff" opacity="0.25"/><circle cx="300.9" cy="203.2" r="9.41" fill="#5aaaff" opacity="0.49"/><circle cx="260.1" cy="286.0" r="11.59" fill="#78e1ff" opacity="0.57"/><circle cx="323.4" cy="137.5" r="5.89" fill="#cd82ff" opacity="0.20"/><circle cx="230.2" cy="193.9" r="5.37" fill="#78e1ff" opacity="0.48"/><circle cx="336.4" cy="183.9" r="4.43" fill="#5aaaff" opacity="0.39"/><circle cx="289.5" cy="155.0" r="4.68" fill="#cd82ff" opacity="0.19"/><circle cx="190.7" cy="249.7" r="5.17" fill="#5aaaff" opacity="0.33"/><circle cx="205.5" cy="218.1" r="3.09" fill="#5aaaff" opacity="0.27"/><circle cx="374.8" cy="247.4" r="8.21" fill="#5aaaff" opacity="0.30"/><circle cx="179.8" cy="210.6" r="8.29" fill="#cd82ff" opacity="0.31"/><circle cx="141.7" cy="290.9" r="3.38" fill="#5aaaff" opacity="0.38"/><circle cx="308.9" cy="151.4" r="5.87" fill="#5aaaff" opacity="0.26"/><circle cx="236.6" cy="286.0" r="5.34" fill="#78e1ff" opacity="0.40"/><circle cx="342.8" cy="289.0" r="6.19" fill="#cd82ff" opacity="0.31"/><circle cx="111.1" cy="304.3" r="3.27" fill="#cd82ff" opacity="0.19"/><circle cx="329.1" cy="155.4" r="3.08" fill="#cd82ff" opacity="0.21"/><circle cx="305.9" cy="271.0" r="4.08" fill="#5aaaff" opacity="0.43"/><circle cx="226.1" cy="221.0" r="3.30" fill="#5aaaff" opacity="0.35"/><circle cx="299.8" cy="216.4" r="5.15" fill="#5aaaff" opacity="0.35"/><circle cx="170.7" cy="182.5" r="4.48" fill="#cd82ff" opacity="0.22"/><circle cx="243.7" cy="234.4" r="10.09" fill="#78e1ff" opacity="0.70"/><circle cx="153.2" cy="371.6" r="3.38" fill="#cd82ff" opacity="0.24"/><circle cx="322.7" cy="153.8" r="5.59" fill="#cd82ff" opacity="0.32"/><circle cx="347.4" cy="319.8" r="5.31" fill="#cd82ff" opacity="0.17"/><circle cx="122.0" cy="237.0" r="3.68" fill="#cd82ff" opacity="0.28"/></g>
<circle cx="256" cy="256" r="55" fill="url(#core)"/>
</svg>